<svg width="0" height="0" class="hidden">
  <symbol id="tick" xmlns="http://www.w3.org/2000/svg" viewBox="0 0 512 457.57">
    <defs></defs>
    <path d="M0,220.57c100.43-1.33,121-5.2,191.79,81.5,54.29-90,114.62-167.9,179.92-235.86C436-.72,436.5-.89,512,.24,383.54,143,278.71,295.74,194.87,457.57,150,361.45,87.33,280.53,0,220.57Z"></path>
  </symbol>
  <symbol fill="none" xmlns="http://www.w3.org/2000/svg" viewBox="0 0 24 24" id="chevron">
    <path d="M21 12C21 16.9706 16.9706 21 12 21C7.02944 21 3 16.9706 3 12C3 7.02944 7.02944 3 12 3C16.9706 3 21 7.02944 21 12Z" stroke="#323232" stroke-width="2" stroke-linejoin="round"></path>
    <path d="M11 15L13.7158 12.2842V12.2842C13.8728 12.1272 13.8728 11.8728 13.7158 11.7158V11.7158L11 9" stroke="#323232" stroke-width="2" stroke-linecap="round" stroke-linejoin="round"></path>
  </symbol>
  <symbol xmlns="http://www.w3.org/2000/svg" viewBox="0 0 512 512" id="clock">
    <path d="M464 256A208 208 0 1 1 48 256a208 208 0 1 1 416 0zM0 256a256 256 0 1 0 512 0A256 256 0 1 0 0 256zM232 120V256c0 8 4 15.5 10.7 20l96 64c11 7.4 25.9 4.4 33.3-6.7s4.4-25.9-6.7-33.3L280 243.2V120c0-13.3-10.7-24-24-24s-24 10.7-24 24z"></path>
  </symbol>
  <symbol xmlns="http://www.w3.org/2000/svg" viewBox="0 0 24 24" id="line">
    <path d="M23 13H1v-2h22z"></path>
    <path fill="none" d="M0 0h24v24H0z"></path>
  </symbol>
  <symbol xmlns="http://www.w3.org/2000/svg" viewBox="0 0 384 512" id="lines">
    <path d="M190.4 74.1c5.6-16.8-3.5-34.9-20.2-40.5s-34.9 3.5-40.5 20.2l-128 384c-5.6 16.8 3.5 34.9 20.2 40.5s34.9-3.5 40.5-20.2l128-384zm70.9-41.7c-17.4-2.9-33.9 8.9-36.8 26.3l-64 384c-2.9 17.4 8.9 33.9 26.3 36.8s33.9-8.9 36.8-26.3l64-384c2.9-17.4-8.9-33.9-26.3-36.8zM352 32c-17.7 0-32 14.3-32 32V448c0 17.7 14.3 32 32 32s32-14.3 32-32V64c0-17.7-14.3-32-32-32z"></path>
  </symbol>
</svg>